<?xml version="1.0" encoding="UTF-8"?>
<!-- Generator: Adobe Illustrator 26.0.1, SVG Export Plug-In . SVG Version: 6.00 Build 0)  -->
<svg version="1.1" id="Layer_1" xmlns="http://www.w3.org/2000/svg" xmlns:xlink="http://www.w3.org/1999/xlink" x="0px" y="0px" viewBox="0 0 500 500" style="enable-background:new 0 0 500 500;" xml:space="preserve">
<style type="text/css">
	.st0{fill:#2DCCD3;}
</style>
<g>
	<circle class="st0" cx="274.8" cy="249.9" r="55.4"/>
	<path class="st0" d="M364.2,329.5c-15,0-29.1,4.4-40.8,12l0,0c-1.9,1.5-3.9,2.9-5.9,4.2c-19.4,13-42.8,20.5-67.9,20.5   c-21.7,0-41.9-5.5-59.4-15.4c-4.2-2.3-7.4-5.8-9.4-9.9c-2.9-5.9-4.5-12.5-4.5-19.4V178.5c0-7.3,1.8-14.4,5-20.4   c2-4,5.3-7.3,9.3-9.4c17.5-9.7,37.8-15.2,59.2-15.2c25.3,0,48.7,7.7,68.2,20.8c1.5,1,3,2.1,4.5,3.1c0.4,0.3,0.9,0.6,1.3,0.9   c11.7,7.4,25.6,11.8,40.5,11.8c41.7,0,75.5-33.9,75.5-75.5S406,19,364.3,19c-15,0-29.1,4.4-40.8,12l0,0c-1.9,1.5-3.9,2.9-5.9,4.2   c-19.4,13-42.8,20.5-67.9,20.5c-25.2,0-48.7-7.7-68.1-20.8c-0.1-0.1-0.4-0.3-0.5-0.4c-1.4-1-2.8-2-4.2-3l0,0   c-0.4-0.3-0.9-0.6-1.3-0.9c-11.7-7.4-25.6-11.7-40.4-11.7c-41.7,0-75.5,33.9-75.5,75.5c0,11.6,2.6,22.4,7.2,32.2   c0.1,0.4,0.4,0.8,0.5,1.1c15.5,37.6,24.2,78.8,24.2,122.1c0,42.3-8.2,82.8-23.2,119.9c-0.3,0.6-0.5,1.1-0.8,1.8   c-5,10.1-7.8,21.5-7.8,33.6c0,4.9,0.5,9.7,1.4,14.4c6.5,35,37.3,61.6,74.3,61.6c17.9,0,34.4-6.3,47.3-16.6c0.6-0.5,1.4-1,2.1-1.5   c18.9-11.8,41.2-18.8,65.1-18.8c25.3,0,48.7,7.7,68.2,20.8c1.5,1,3,2.1,4.5,3.1c0.4,0.3,0.9,0.6,1.3,0.9   c11.7,7.4,25.6,11.8,40.5,11.8c41.7,0,75.5-33.9,75.5-75.5C439.7,363.3,405.9,329.5,364.2,329.5z"/>
</g>
</svg>