<?xml version="1.0" encoding="UTF-8"?>
<svg width="386px" height="124px" viewBox="0 0 386 124" version="1.1" xmlns="http://www.w3.org/2000/svg" xmlns:xlink="http://www.w3.org/1999/xlink">
    <!-- Generator: Sketch 63.1 (92452) - https://sketch.com -->
    <title>Group 60</title>
    <desc>Created with Sketch.</desc>
    <defs>
        <polygon id="path-1" points="0.7134 0.4412 37.45 0.4412 37.45 44.9412 0.7134 44.9412"/>
    </defs>
    <g id="Symbols" stroke="none" stroke-width="1" fill="none" fill-rule="evenodd">
        <g id="Logo" transform="translate(0.000000, -1.000000)">
            <g id="Group-60">
                <polygon id="Fill-1" fill="#510B76" points="142.4478 74.1642 142.4478 41.1592 129.1378 41.1592 129.1378 32.8632 164.7048 32.8632 164.7048 41.1592 151.5728 41.1592 151.5728 74.1642"/>
                <g id="Group-59" transform="translate(0.000000, 0.823000)">
                    <path d="M171.6792,73.3412 L171.6792,32.0402 L188.9822,32.0402 C192.8332,32.0402 196.1522,33.3442 198.8772,36.0112 C201.6622,38.6172 203.0262,41.8172 203.0262,45.6692 C203.0262,50.9432 200.1212,55.5052 195.6772,57.4022 L205.7502,73.3412 L195.4412,73.3412 L186.8482,59.5942 L186.7312,59.5942 L180.7452,59.5942 L180.7452,73.3412 L171.6792,73.3412 Z M180.7452,51.5342 L187.9742,51.5342 C191.5302,51.5342 193.9012,49.2832 193.9012,45.7862 C193.9012,42.6472 191.6492,40.3362 188.7442,40.3362 L180.7452,40.3362 L180.7452,51.5342 Z" id="Fill-2" fill="#070101"/>
                    <path d="M209.2583,32.0404 L218.3833,32.0404 L218.3833,55.6824 C218.3833,62.3784 221.2273,65.6964 226.8573,65.6964 C232.4863,65.6964 235.2713,62.3784 235.2713,55.6824 L235.2713,32.0404 L244.3963,32.0404 L244.3963,56.6314 C244.3963,62.2014 242.7373,66.4674 239.4193,69.4894 C236.1003,72.5114 231.8933,73.9924 226.8573,73.9924 C221.7603,73.9924 217.5533,72.5114 214.2363,69.5484 C210.9173,66.5264 209.2583,62.2604 209.2583,56.6314 L209.2583,32.0404 Z" id="Fill-4" fill="#070101"/>
                    <polygon id="Fill-6" fill="#070101" points="252.0747 73.3412 252.0747 30.5592 273.8817 54.3202 295.6857 30.5592 295.6857 73.3412 286.9177 73.3412 286.9177 52.3642 273.8817 67.0002 260.8457 52.3642 260.8457 73.3412"/>
                    <path d="M301.2564,73.3412 L322.7654,29.6702 L344.2754,73.3412 L334.5574,73.3412 L331.3574,66.7642 L314.1134,66.7642 L310.9144,73.3412 L301.2564,73.3412 Z M317.4924,59.0002 L327.9804,59.0002 L322.7064,48.1572 L317.4924,59.0002 Z" id="Fill-8" fill="#070101"/>
                    <g id="Group-12" transform="translate(348.000000, 30.000000)">
                        <mask id="mask-2" fill="white">
                            <use xlink:href="#path-1"/>
                        </mask>
                        <g id="Clip-11"/>
                        <polygon id="Fill-10" fill="#070101" mask="url(#mask-2)" points="0.7134 43.3412 0.7134 0.4412 28.4424 25.5052 28.4424 2.0402 37.4504 2.0402 37.4504 44.9412 9.7204 19.9352 9.7204 43.3412"/>
                    </g>
                    <path d="M142.4019,90.8607 C143.3489,91.6907 144.5029,92.1057 145.8789,92.1057 C147.0159,92.1057 147.6819,91.6907 147.6819,91.0827 C147.6819,90.7417 147.5189,90.4757 147.2089,90.2827 C146.8979,90.0897 146.2769,89.8237 145.3759,89.4977 C143.6159,88.8597 142.5939,87.9557 142.5939,86.4147 C142.5939,85.5107 142.9499,84.8137 143.6439,84.2957 C144.3549,83.7767 145.2269,83.5097 146.2769,83.5097 C147.3279,83.5097 148.2439,83.7467 149.0429,84.2067 L149.0429,86.4737 C148.3339,85.8957 147.4449,85.5997 146.3659,85.5997 C145.4199,85.5997 144.8859,85.9257 144.8859,86.3997 C144.8859,86.6967 145.0199,86.9187 145.4199,87.1557 L145.9229,87.4077 L146.6019,87.6737 L147.2539,87.9267 C148.2439,88.3267 148.9389,88.7567 149.3389,89.2147 C149.7529,89.6737 149.9599,90.2977 149.9599,91.0827 C149.9599,92.9057 148.5689,94.1657 145.9809,94.1657 C144.6659,94.1657 143.4669,93.8547 142.4019,93.2317 L142.4019,90.8607 Z" id="Fill-13" fill="#070101"/>
                    <polygon id="Fill-15" fill="#070101" points="160.1958 94.0023 160.1958 85.7473 157.4008 85.7473 157.4008 83.6733 165.2238 83.6733 165.2238 85.7473 162.4728 85.7473 162.4728 94.0023"/>
                    <path d="M171.5406,94.0023 L176.9086,83.0803 L182.2766,94.0023 L179.8526,94.0023 L179.0536,92.3573 L174.7496,92.3573 L173.9516,94.0023 L171.5406,94.0023 Z M175.5936,90.4163 L178.2096,90.4163 L176.8946,87.7043 L175.5936,90.4163 Z" id="Fill-17" fill="#070101"/>
                    <polygon id="Fill-19" fill="#070101" points="191.3902 94.0023 191.3902 85.7473 188.5952 85.7473 188.5952 83.6733 196.4182 83.6733 196.4182 85.7473 193.6672 85.7473 193.6672 94.0023"/>
                    <polygon id="Fill-21" fill="#070101" points="204.8794 94.0023 204.8794 83.6733 211.9184 83.6733 211.9184 85.7473 207.1564 85.7473 207.1564 87.6903 211.6084 87.6903 211.6084 89.7193 207.1564 89.7193 207.1564 91.9273 212.0234 91.9273 212.0234 94.0023"/>
                    <path d="M234.107,83.6732 L236.384,83.6732 L236.384,89.5862 C236.384,91.2612 237.094,92.0912 238.499,92.0912 C239.904,92.0912 240.599,91.2612 240.599,89.5862 L240.599,83.6732 L242.877,83.6732 L242.877,89.8222 C242.877,91.2162 242.461,92.2822 241.634,93.0392 C240.806,93.7952 239.755,94.1662 238.499,94.1662 C237.227,94.1662 236.177,93.7952 235.349,93.0542 C234.521,92.2982 234.107,91.2312 234.107,89.8222 L234.107,83.6732 Z" id="Fill-23" fill="#070101"/>
                    <polygon id="Fill-25" fill="#070101" points="252.0484 94.0023 252.0484 83.2733 258.9694 89.5413 258.9694 83.6733 261.2174 83.6733 261.2174 94.4023 254.2964 88.1483 254.2964 94.0023"/>
                    <polygon id="Fill-27" fill="#070101" points="270.552 94.001 272.829 94.001 272.829 83.672 270.552 83.672"/>
                    <polygon id="Fill-29" fill="#070101" points="286.6431 94.5063 281.3491 83.6733 283.7751 83.6733 286.6431 89.7353 289.5281 83.6733 291.9541 83.6733"/>
                    <polygon id="Fill-30" fill="#070101" points="300.3999 94.0023 300.3999 83.6733 307.4389 83.6733 307.4389 85.7473 302.6779 85.7473 302.6779 87.6903 307.1289 87.6903 307.1289 89.7193 302.6779 89.7193 302.6779 91.9273 307.5439 91.9273 307.5439 94.0023"/>
                    <path d="M316.4927,94.0023 L316.4927,83.6733 L320.8107,83.6733 C321.7717,83.6733 322.5997,83.9993 323.2807,84.6653 C323.9757,85.3183 324.3157,86.1183 324.3157,87.0813 C324.3157,88.4003 323.5927,89.5413 322.4817,90.0153 L324.9957,94.0023 L322.4237,94.0023 L320.2787,90.5643 L320.2497,90.5643 L318.7567,90.5643 L318.7567,94.0023 L316.4927,94.0023 Z M318.7567,88.5483 L320.5587,88.5483 C321.4467,88.5483 322.0377,87.9853 322.0377,87.1113 C322.0377,86.3253 321.4767,85.7473 320.7527,85.7473 L318.7567,85.7473 L318.7567,88.5483 Z" id="Fill-31" fill="#070101"/>
                    <path d="M333.0152,90.8607 C333.9612,91.6907 335.1152,92.1057 336.4902,92.1057 C337.6292,92.1057 338.2942,91.6907 338.2942,91.0827 C338.2942,90.7417 338.1312,90.4757 337.8212,90.2827 C337.5112,90.0897 336.8902,89.8237 335.9872,89.4977 C334.2272,88.8597 333.2062,87.9557 333.2062,86.4147 C333.2062,85.5107 333.5622,84.8137 334.2572,84.2957 C334.9672,83.7767 335.8392,83.5097 336.8902,83.5097 C337.9392,83.5097 338.8562,83.7467 339.6552,84.2067 L339.6552,86.4737 C338.9452,85.8957 338.0572,85.5997 336.9782,85.5997 C336.0322,85.5997 335.4982,85.9257 335.4982,86.3997 C335.4982,86.6967 335.6322,86.9187 336.0322,87.1557 L336.5342,87.4077 L337.2152,87.6737 L337.8662,87.9267 C338.8562,88.3267 339.5522,88.7567 339.9512,89.2147 C340.3652,89.6737 340.5722,90.2977 340.5722,91.0827 C340.5722,92.9057 339.1822,94.1657 336.5942,94.1657 C335.2772,94.1657 334.0782,93.8547 333.0152,93.2317 L333.0152,90.8607 Z" id="Fill-32" fill="#070101"/>
                    <polygon id="Fill-33" fill="#070101" points="349.3 94.001 351.576 94.001 351.576 83.672 349.3 83.672"/>
                    <polygon id="Fill-34" fill="#070101" points="362.9068 94.0023 362.9068 85.7473 360.1128 85.7473 360.1128 83.6733 367.9348 83.6733 367.9348 85.7473 365.1838 85.7473 365.1838 94.0023"/>
                    <polygon id="Fill-35" fill="#070101" points="379.3394 94.0023 379.3394 90.1493 375.5544 83.6733 378.0244 83.6733 380.4794 87.9703 382.9334 83.6733 385.4024 83.6733 381.6164 90.1493 381.6164 94.0023"/>
                    <path d="M171.6792,73.3412 L171.6792,32.0402 L188.9822,32.0402 C192.8332,32.0402 196.1522,33.3442 198.8772,36.0112 C201.6622,38.6172 203.0262,41.8172 203.0262,45.6692 C203.0262,50.9432 200.1212,55.5052 195.6772,57.4022 L205.7502,73.3412 L195.4412,73.3412 L186.8482,59.5942 L186.7312,59.5942 L180.7452,59.5942 L180.7452,73.3412 L171.6792,73.3412 Z M180.7452,51.5342 L187.9742,51.5342 C191.5302,51.5342 193.9012,49.2832 193.9012,45.7862 C193.9012,42.6472 191.6492,40.3362 188.7442,40.3362 L180.7452,40.3362 L180.7452,51.5342 Z" id="Fill-36" fill="#510B76"/>
                    <path d="M209.2583,32.0404 L218.3833,32.0404 L218.3833,55.6824 C218.3833,62.3784 221.2273,65.6964 226.8573,65.6964 C232.4863,65.6964 235.2713,62.3784 235.2713,55.6824 L235.2713,32.0404 L244.3963,32.0404 L244.3963,56.6314 C244.3963,62.2014 242.7373,66.4674 239.4193,69.4894 C236.1003,72.5114 231.8933,73.9924 226.8573,73.9924 C221.7603,73.9924 217.5533,72.5114 214.2363,69.5484 C210.9173,66.5264 209.2583,62.2604 209.2583,56.6314 L209.2583,32.0404 Z" id="Fill-37" fill="#510B76"/>
                    <polygon id="Fill-38" fill="#510B76" points="252.0747 73.3412 252.0747 30.5592 273.8817 54.3202 295.6857 30.5592 295.6857 73.3412 286.9177 73.3412 286.9177 52.3642 273.8817 67.0002 260.8457 52.3642 260.8457 73.3412"/>
                    <path d="M301.2564,73.3412 L322.7654,29.6702 L344.2754,73.3412 L334.5574,73.3412 L331.3574,66.7642 L314.1134,66.7642 L310.9144,73.3412 L301.2564,73.3412 Z M317.4924,59.0002 L327.9804,59.0002 L322.7064,48.1572 L317.4924,59.0002 Z" id="Fill-39" fill="#510B76"/>
                    <polygon id="Fill-40" fill="#510B76" points="348.7134 73.3412 348.7134 30.4412 376.4424 55.5052 376.4424 32.0402 385.4504 32.0402 385.4504 74.9412 357.7204 49.9352 357.7204 73.3412"/>
                    <path d="M142.4019,90.8607 C143.3489,91.6907 144.5029,92.1057 145.8789,92.1057 C147.0159,92.1057 147.6819,91.6907 147.6819,91.0827 C147.6819,90.7417 147.5189,90.4757 147.2089,90.2827 C146.8979,90.0897 146.2769,89.8237 145.3759,89.4977 C143.6159,88.8597 142.5939,87.9557 142.5939,86.4147 C142.5939,85.5107 142.9499,84.8137 143.6439,84.2957 C144.3549,83.7767 145.2269,83.5097 146.2769,83.5097 C147.3279,83.5097 148.2439,83.7467 149.0429,84.2067 L149.0429,86.4737 C148.3339,85.8957 147.4449,85.5997 146.3659,85.5997 C145.4199,85.5997 144.8859,85.9257 144.8859,86.3997 C144.8859,86.6967 145.0199,86.9187 145.4199,87.1557 L145.9229,87.4077 L146.6019,87.6737 L147.2539,87.9267 C148.2439,88.3267 148.9389,88.7567 149.3389,89.2147 C149.7529,89.6737 149.9599,90.2977 149.9599,91.0827 C149.9599,92.9057 148.5689,94.1657 145.9809,94.1657 C144.6659,94.1657 143.4669,93.8547 142.4019,93.2317 L142.4019,90.8607 Z" id="Fill-41" fill="#510B76"/>
                    <polygon id="Fill-42" fill="#510B76" points="160.1958 94.0023 160.1958 85.7473 157.4008 85.7473 157.4008 83.6733 165.2238 83.6733 165.2238 85.7473 162.4728 85.7473 162.4728 94.0023"/>
                    <path d="M171.5406,94.0023 L176.9086,83.0803 L182.2766,94.0023 L179.8526,94.0023 L179.0536,92.3573 L174.7496,92.3573 L173.9516,94.0023 L171.5406,94.0023 Z M175.5936,90.4163 L178.2096,90.4163 L176.8946,87.7043 L175.5936,90.4163 Z" id="Fill-43" fill="#510B76"/>
                    <polygon id="Fill-44" fill="#510B76" points="191.3902 94.0023 191.3902 85.7473 188.5952 85.7473 188.5952 83.6733 196.4182 83.6733 196.4182 85.7473 193.6672 85.7473 193.6672 94.0023"/>
                    <polygon id="Fill-45" fill="#510B76" points="204.8794 94.0023 204.8794 83.6733 211.9184 83.6733 211.9184 85.7473 207.1564 85.7473 207.1564 87.6903 211.6084 87.6903 211.6084 89.7193 207.1564 89.7193 207.1564 91.9273 212.0234 91.9273 212.0234 94.0023"/>
                    <path d="M234.107,83.6732 L236.384,83.6732 L236.384,89.5862 C236.384,91.2612 237.094,92.0912 238.499,92.0912 C239.904,92.0912 240.599,91.2612 240.599,89.5862 L240.599,83.6732 L242.877,83.6732 L242.877,89.8222 C242.877,91.2162 242.461,92.2822 241.634,93.0392 C240.806,93.7952 239.755,94.1662 238.499,94.1662 C237.227,94.1662 236.177,93.7952 235.349,93.0542 C234.521,92.2982 234.107,91.2312 234.107,89.8222 L234.107,83.6732 Z" id="Fill-46" fill="#510B76"/>
                    <polygon id="Fill-47" fill="#510B76" points="252.0484 94.0023 252.0484 83.2733 258.9694 89.5413 258.9694 83.6733 261.2174 83.6733 261.2174 94.4023 254.2964 88.1483 254.2964 94.0023"/>
                    <polygon id="Fill-48" fill="#510B76" points="270.552 94.001 272.829 94.001 272.829 83.672 270.552 83.672"/>
                    <polygon id="Fill-49" fill="#510B76" points="286.6431 94.5063 281.3491 83.6733 283.7751 83.6733 286.6431 89.7353 289.5281 83.6733 291.9541 83.6733"/>
                    <polygon id="Fill-50" fill="#510B76" points="300.3999 94.0023 300.3999 83.6733 307.4389 83.6733 307.4389 85.7473 302.6779 85.7473 302.6779 87.6903 307.1289 87.6903 307.1289 89.7193 302.6779 89.7193 302.6779 91.9273 307.5439 91.9273 307.5439 94.0023"/>
                    <path d="M316.4927,94.0023 L316.4927,83.6733 L320.8107,83.6733 C321.7717,83.6733 322.5997,83.9993 323.2807,84.6653 C323.9757,85.3183 324.3157,86.1183 324.3157,87.0813 C324.3157,88.4003 323.5927,89.5413 322.4817,90.0153 L324.9957,94.0023 L322.4237,94.0023 L320.2787,90.5643 L320.2497,90.5643 L318.7567,90.5643 L318.7567,94.0023 L316.4927,94.0023 Z M318.7567,88.5483 L320.5587,88.5483 C321.4467,88.5483 322.0377,87.9853 322.0377,87.1113 C322.0377,86.3253 321.4767,85.7473 320.7527,85.7473 L318.7567,85.7473 L318.7567,88.5483 Z" id="Fill-51" fill="#510B76"/>
                    <path d="M333.0152,90.8607 C333.9612,91.6907 335.1152,92.1057 336.4902,92.1057 C337.6292,92.1057 338.2942,91.6907 338.2942,91.0827 C338.2942,90.7417 338.1312,90.4757 337.8212,90.2827 C337.5112,90.0897 336.8902,89.8237 335.9872,89.4977 C334.2272,88.8597 333.2062,87.9557 333.2062,86.4147 C333.2062,85.5107 333.5622,84.8137 334.2572,84.2957 C334.9672,83.7767 335.8392,83.5097 336.8902,83.5097 C337.9392,83.5097 338.8562,83.7467 339.6552,84.2067 L339.6552,86.4737 C338.9452,85.8957 338.0572,85.5997 336.9782,85.5997 C336.0322,85.5997 335.4982,85.9257 335.4982,86.3997 C335.4982,86.6967 335.6322,86.9187 336.0322,87.1557 L336.5342,87.4077 L337.2152,87.6737 L337.8662,87.9267 C338.8562,88.3267 339.5522,88.7567 339.9512,89.2147 C340.3652,89.6737 340.5722,90.2977 340.5722,91.0827 C340.5722,92.9057 339.1822,94.1657 336.5942,94.1657 C335.2772,94.1657 334.0782,93.8547 333.0152,93.2317 L333.0152,90.8607 Z" id="Fill-52" fill="#510B76"/>
                    <polygon id="Fill-53" fill="#510B76" points="349.3 94.001 351.576 94.001 351.576 83.672 349.3 83.672"/>
                    <polygon id="Fill-54" fill="#510B76" points="362.9068 94.0023 362.9068 85.7473 360.1128 85.7473 360.1128 83.6733 367.9348 83.6733 367.9348 85.7473 365.1838 85.7473 365.1838 94.0023"/>
                    <polygon id="Fill-55" fill="#510B76" points="379.3394 94.0023 379.3394 90.1493 375.5544 83.6733 378.0244 83.6733 380.4794 87.9703 382.9334 83.6733 385.4024 83.6733 381.6164 90.1493 381.6164 94.0023"/>
                    <polygon id="Fill-56" fill="#510B76" points="-0.0005 0.1767 -0.0005 31.9847 70.2665 0.1767"/>
                    <polygon id="Fill-57" fill="#510B76" points="10.9722 33.7191 108.4812 33.7191 108.4812 6.0441"/>
                    <polygon id="Fill-58" fill="#510B76" points="39.024 124.0004 69.458 124.0004 69.458 60.8854 39.024 42.0704"/>
                </g>
            </g>
        </g>
    </g>
</svg>