<?xml version="1.0" encoding="UTF-8" standalone="no"?>
<svg xmlns="http://www.w3.org/2000/svg" xml:space="preserve" width="300" height="300">
  <g transform="scale(.75)">
    <path fill="#00000000" d="M0 0h400v400H0z"/>
    <g transform="translate(695.19553 -948.4235) scale(7.87018)">
      <path fill="#fff" d="M-46.505941 137.67659c-.381-1.46049-1.545166-2.62464-3.005666-3.00564-2.688082-.74083-13.419498-.74083-13.419498-.74083s-10.710277 0-13.398415.6985c-1.439322.40216-2.624647 1.58748-3.026811 3.04797-.698494 2.68814-.698494 8.25495-.698494 8.25495s0 5.58794.698494 8.23377c.402164 1.46047 1.566322 2.62464 3.026811 3.02681 2.709305.71966 13.398415.71966 13.398415.71966s10.731416 0 13.419498-.6985c1.4605-.40216 2.624666-1.54516 3.005666-3.0268.719667-2.667.719667-8.23378.719667-8.23378s.02117-5.58797-.719667-8.27611z"/>
      <path fill="#282828" d="m-66.338938 151.05384 8.91111-5.1223-8.91111-5.14348z"/>
    </g>
  </g>
</svg>